<!DOCTYPE svg PUBLIC "-//W3C//DTD SVG 20010904//EN" "http://www.w3.org/TR/2001/REC-SVG-20010904/DTD/svg10.dtd">
<svg version="1.0" xmlns="http://www.w3.org/2000/svg" width="52px" height="46px" viewBox="0 0 520 460" preserveAspectRatio="xMidYMid meet">
<g id="layer101" fill="#ec598a" stroke="none">
 <path d="M396 441 c-31 -34 -103 -62 -141 -55 -19 3 -42 1 -56 -7 -13 -7 -44 -13 -69 -14 -52 -1 -103 -33 -119 -74 -5 -14 -9 -50 -10 -80 0 -49 3 -57 40 -94 21 -22 39 -44 39 -49 0 -4 17 -15 37 -24 21 -9 52 -23 70 -31 21 -10 44 -13 70 -9 21 4 64 10 95 14 64 9 85 23 135 100 37 55 37 58 15 160 -6 26 -22 57 -41 76 -23 24 -31 41 -31 69 0 42 -9 46 -34 18z"/>
 </g>
<g id="layer102" fill="#f4a4ba" stroke="none">
 <path d="M370 380 c-14 -11 -33 -20 -42 -20 -30 0 -20 -18 25 -44 l42 -26 -30 0 c-18 0 -46 13 -69 30 -44 33 -77 38 -100 14 -18 -18 -21 -66 -6 -95 13 -23 7 -25 -14 -4 -12 12 -20 13 -35 5 -34 -18 -45 -11 -17 11 20 15 26 29 24 48 -4 35 -43 39 -81 9 -24 -19 -28 -31 -29 -73 -1 -79 1 -85 25 -96 12 -5 30 -23 39 -40 12 -20 25 -29 43 -29 15 0 38 -9 52 -20 52 -40 92 -18 42 24 -23 19 -27 29 -19 38 6 7 17 22 25 33 14 19 14 18 15 -17 0 -63 67 -97 129 -65 47 23 125 157 92 157 -13 0 -51 -50 -51 -67 0 -8 -4 -11 -10 -8 -5 3 -10 15 -10 26 0 10 -6 19 -13 19 -7 0 -22 7 -33 15 -17 13 -16 14 18 8 30 -4 41 -1 62 20 36 36 33 59 -15 102 -24 22 -38 42 -35 51 7 18 6 18 -24 -6z"/>
 </g>

</svg>